<mxfile host="app.diagrams.net" agent="Mozilla/5.0 (Macintosh; Intel Mac OS X 10_15_7) AppleWebKit/537.36 (KHTML, like Gecko) Chrome/134.0.0.0 Safari/537.36" version="26.2.4">
  <diagram name="Page-1" id="LAhv8vriaJ1nKEPxHH_n">
    <mxGraphModel dx="1360" dy="873" grid="1" gridSize="10" guides="1" tooltips="1" connect="1" arrows="1" fold="1" page="1" pageScale="1" pageWidth="1200" pageHeight="1920" math="0" shadow="0">
      <root>
        <mxCell id="0" />
        <mxCell id="1" parent="0" />
        <mxCell id="tbAudo4sEafu-b6Cth5T-43" value="" style="group" vertex="1" connectable="0" parent="1">
          <mxGeometry x="50" y="163.5" width="1090" height="416.5" as="geometry" />
        </mxCell>
        <mxCell id="tbAudo4sEafu-b6Cth5T-2" value="React SPA&lt;div&gt;with HTML, CSS and JS&lt;/div&gt;" style="rounded=0;whiteSpace=wrap;html=1;" vertex="1" parent="tbAudo4sEafu-b6Cth5T-43">
          <mxGeometry x="210" y="5" width="100" height="260" as="geometry" />
        </mxCell>
        <mxCell id="tbAudo4sEafu-b6Cth5T-4" value="ADS Web Application Architecture" style="text;strokeColor=none;fillColor=none;html=1;fontSize=24;fontStyle=1;verticalAlign=middle;align=center;" vertex="1" parent="tbAudo4sEafu-b6Cth5T-43">
          <mxGeometry x="530" y="376.5" width="100" height="40" as="geometry" />
        </mxCell>
        <mxCell id="tbAudo4sEafu-b6Cth5T-6" value="" style="group" vertex="1" connectable="0" parent="tbAudo4sEafu-b6Cth5T-43">
          <mxGeometry x="1030" y="96.5" width="60" height="120" as="geometry" />
        </mxCell>
        <mxCell id="tbAudo4sEafu-b6Cth5T-3" value="" style="shape=cylinder3;whiteSpace=wrap;html=1;boundedLbl=1;backgroundOutline=1;size=15;" vertex="1" parent="tbAudo4sEafu-b6Cth5T-6">
          <mxGeometry width="60" height="80" as="geometry" />
        </mxCell>
        <mxCell id="tbAudo4sEafu-b6Cth5T-5" value="Database" style="text;html=1;align=center;verticalAlign=middle;whiteSpace=wrap;rounded=0;" vertex="1" parent="tbAudo4sEafu-b6Cth5T-6">
          <mxGeometry y="90" width="60" height="30" as="geometry" />
        </mxCell>
        <mxCell id="tbAudo4sEafu-b6Cth5T-15" value="" style="endArrow=classic;html=1;rounded=0;exitX=0.667;exitY=0.967;exitDx=0;exitDy=0;exitPerimeter=0;" edge="1" parent="tbAudo4sEafu-b6Cth5T-43" source="tbAudo4sEafu-b6Cth5T-12">
          <mxGeometry width="50" height="50" relative="1" as="geometry">
            <mxPoint x="460" y="176.5" as="sourcePoint" />
            <mxPoint x="530" y="156.5" as="targetPoint" />
          </mxGeometry>
        </mxCell>
        <mxCell id="tbAudo4sEafu-b6Cth5T-19" value="" style="endArrow=classic;html=1;rounded=0;exitX=1;exitY=0.5;exitDx=0;exitDy=0;" edge="1" parent="tbAudo4sEafu-b6Cth5T-43">
          <mxGeometry width="50" height="50" relative="1" as="geometry">
            <mxPoint x="780" y="178.5" as="sourcePoint" />
            <mxPoint x="871" y="181.5" as="targetPoint" />
          </mxGeometry>
        </mxCell>
        <mxCell id="tbAudo4sEafu-b6Cth5T-21" style="edgeStyle=orthogonalEdgeStyle;rounded=0;orthogonalLoop=1;jettySize=auto;html=1;" edge="1" parent="tbAudo4sEafu-b6Cth5T-43" source="tbAudo4sEafu-b6Cth5T-11">
          <mxGeometry relative="1" as="geometry">
            <mxPoint x="1030" y="134.5" as="targetPoint" />
          </mxGeometry>
        </mxCell>
        <mxCell id="tbAudo4sEafu-b6Cth5T-22" style="edgeStyle=orthogonalEdgeStyle;rounded=0;orthogonalLoop=1;jettySize=auto;html=1;exitX=0;exitY=0;exitDx=0;exitDy=52.5;exitPerimeter=0;entryX=1;entryY=0.552;entryDx=0;entryDy=0;entryPerimeter=0;" edge="1" parent="tbAudo4sEafu-b6Cth5T-43" source="tbAudo4sEafu-b6Cth5T-3" target="tbAudo4sEafu-b6Cth5T-11">
          <mxGeometry relative="1" as="geometry">
            <mxPoint x="910" y="176.5" as="sourcePoint" />
            <mxPoint x="1070" y="176.5" as="targetPoint" />
          </mxGeometry>
        </mxCell>
        <mxCell id="tbAudo4sEafu-b6Cth5T-24" value="" style="endArrow=classic;html=1;rounded=0;entryX=0.975;entryY=0.633;entryDx=0;entryDy=0;entryPerimeter=0;" edge="1" parent="tbAudo4sEafu-b6Cth5T-43" target="tbAudo4sEafu-b6Cth5T-14">
          <mxGeometry width="50" height="50" relative="1" as="geometry">
            <mxPoint x="870" y="196.5" as="sourcePoint" />
            <mxPoint x="981" y="199.5" as="targetPoint" />
          </mxGeometry>
        </mxCell>
        <mxCell id="tbAudo4sEafu-b6Cth5T-27" value="" style="shape=flexArrow;endArrow=classic;html=1;rounded=0;entryX=0.99;entryY=0.333;entryDx=0;entryDy=0;entryPerimeter=0;exitX=-0.002;exitY=0.331;exitDx=0;exitDy=0;exitPerimeter=0;" edge="1" parent="tbAudo4sEafu-b6Cth5T-43">
          <mxGeometry width="50" height="50" relative="1" as="geometry">
            <mxPoint x="439.1400000000001" y="152.37" as="sourcePoint" />
            <mxPoint x="309" y="154.58000000000004" as="targetPoint" />
          </mxGeometry>
        </mxCell>
        <mxCell id="tbAudo4sEafu-b6Cth5T-28" value="Response" style="edgeLabel;html=1;align=center;verticalAlign=middle;resizable=0;points=[];" vertex="1" connectable="0" parent="tbAudo4sEafu-b6Cth5T-27">
          <mxGeometry x="0.0477" y="2" relative="1" as="geometry">
            <mxPoint as="offset" />
          </mxGeometry>
        </mxCell>
        <mxCell id="tbAudo4sEafu-b6Cth5T-29" value="" style="shape=flexArrow;endArrow=classic;html=1;rounded=0;entryX=0;entryY=0.5;entryDx=0;entryDy=0;" edge="1" parent="tbAudo4sEafu-b6Cth5T-43">
          <mxGeometry width="50" height="50" relative="1" as="geometry">
            <mxPoint x="310" y="104" as="sourcePoint" />
            <mxPoint x="440" y="104" as="targetPoint" />
          </mxGeometry>
        </mxCell>
        <mxCell id="tbAudo4sEafu-b6Cth5T-30" value="Request" style="edgeLabel;html=1;align=center;verticalAlign=middle;resizable=0;points=[];" vertex="1" connectable="0" parent="tbAudo4sEafu-b6Cth5T-29">
          <mxGeometry x="-0.0769" y="8" relative="1" as="geometry">
            <mxPoint y="1" as="offset" />
          </mxGeometry>
        </mxCell>
        <mxCell id="tbAudo4sEafu-b6Cth5T-35" value="" style="shape=flexArrow;endArrow=classic;html=1;rounded=0;entryX=0;entryY=0.5;entryDx=0;entryDy=0;" edge="1" parent="tbAudo4sEafu-b6Cth5T-43">
          <mxGeometry width="50" height="50" relative="1" as="geometry">
            <mxPoint x="110" y="106.5" as="sourcePoint" />
            <mxPoint x="210" y="106.5" as="targetPoint" />
          </mxGeometry>
        </mxCell>
        <mxCell id="tbAudo4sEafu-b6Cth5T-36" value="Request" style="edgeLabel;html=1;align=center;verticalAlign=middle;resizable=0;points=[];" vertex="1" connectable="0" parent="tbAudo4sEafu-b6Cth5T-35">
          <mxGeometry x="-0.0769" y="8" relative="1" as="geometry">
            <mxPoint y="1" as="offset" />
          </mxGeometry>
        </mxCell>
        <mxCell id="tbAudo4sEafu-b6Cth5T-37" value="" style="shape=flexArrow;endArrow=classic;html=1;rounded=0;exitX=-0.002;exitY=0.331;exitDx=0;exitDy=0;exitPerimeter=0;" edge="1" parent="tbAudo4sEafu-b6Cth5T-43">
          <mxGeometry width="50" height="50" relative="1" as="geometry">
            <mxPoint x="210.0000000000001" y="155.39" as="sourcePoint" />
            <mxPoint x="100" y="157.5" as="targetPoint" />
          </mxGeometry>
        </mxCell>
        <mxCell id="tbAudo4sEafu-b6Cth5T-38" value="Response" style="edgeLabel;html=1;align=center;verticalAlign=middle;resizable=0;points=[];" vertex="1" connectable="0" parent="tbAudo4sEafu-b6Cth5T-37">
          <mxGeometry x="0.0477" y="2" relative="1" as="geometry">
            <mxPoint as="offset" />
          </mxGeometry>
        </mxCell>
        <mxCell id="tbAudo4sEafu-b6Cth5T-41" value="" style="group" vertex="1" connectable="0" parent="tbAudo4sEafu-b6Cth5T-43">
          <mxGeometry y="96.5" width="91" height="130" as="geometry" />
        </mxCell>
        <mxCell id="tbAudo4sEafu-b6Cth5T-9" value="" style="verticalLabelPosition=bottom;sketch=0;aspect=fixed;html=1;verticalAlign=top;strokeColor=none;align=center;outlineConnect=0;shape=mxgraph.citrix.laptop_1;" vertex="1" parent="tbAudo4sEafu-b6Cth5T-41">
          <mxGeometry width="91" height="77" as="geometry" />
        </mxCell>
        <mxCell id="tbAudo4sEafu-b6Cth5T-10" value="Client" style="text;html=1;align=center;verticalAlign=middle;whiteSpace=wrap;rounded=0;" vertex="1" parent="tbAudo4sEafu-b6Cth5T-41">
          <mxGeometry x="31" y="100" width="60" height="30" as="geometry" />
        </mxCell>
        <mxCell id="tbAudo4sEafu-b6Cth5T-42" value="" style="group" vertex="1" connectable="0" parent="tbAudo4sEafu-b6Cth5T-43">
          <mxGeometry x="440" width="430" height="270" as="geometry" />
        </mxCell>
        <mxCell id="tbAudo4sEafu-b6Cth5T-11" value="" style="rounded=0;whiteSpace=wrap;html=1;" vertex="1" parent="tbAudo4sEafu-b6Cth5T-42">
          <mxGeometry width="430" height="270" as="geometry" />
        </mxCell>
        <mxCell id="tbAudo4sEafu-b6Cth5T-12" value="RestController" style="rounded=0;whiteSpace=wrap;html=1;" vertex="1" parent="tbAudo4sEafu-b6Cth5T-42">
          <mxGeometry x="10" y="36.5" width="120" height="60" as="geometry" />
        </mxCell>
        <mxCell id="tbAudo4sEafu-b6Cth5T-13" value="Service" style="rounded=0;whiteSpace=wrap;html=1;" vertex="1" parent="tbAudo4sEafu-b6Cth5T-42">
          <mxGeometry x="10" y="156.5" width="120" height="60" as="geometry" />
        </mxCell>
        <mxCell id="tbAudo4sEafu-b6Cth5T-14" value="Repository" style="rounded=0;whiteSpace=wrap;html=1;" vertex="1" parent="tbAudo4sEafu-b6Cth5T-42">
          <mxGeometry x="220" y="156.5" width="120" height="60" as="geometry" />
        </mxCell>
        <mxCell id="tbAudo4sEafu-b6Cth5T-18" value="" style="endArrow=classic;html=1;rounded=0;exitX=0.5;exitY=0;exitDx=0;exitDy=0;entryX=0.5;entryY=1;entryDx=0;entryDy=0;" edge="1" parent="tbAudo4sEafu-b6Cth5T-42" source="tbAudo4sEafu-b6Cth5T-13" target="tbAudo4sEafu-b6Cth5T-12">
          <mxGeometry width="50" height="50" relative="1" as="geometry">
            <mxPoint x="100" y="104.5" as="sourcePoint" />
            <mxPoint x="100" y="166.5" as="targetPoint" />
          </mxGeometry>
        </mxCell>
        <mxCell id="tbAudo4sEafu-b6Cth5T-16" value="" style="endArrow=classic;html=1;rounded=0;exitX=1.017;exitY=0.383;exitDx=0;exitDy=0;entryX=0.017;entryY=0.367;entryDx=0;entryDy=0;entryPerimeter=0;exitPerimeter=0;" edge="1" parent="tbAudo4sEafu-b6Cth5T-42" source="tbAudo4sEafu-b6Cth5T-13" target="tbAudo4sEafu-b6Cth5T-14">
          <mxGeometry width="50" height="50" relative="1" as="geometry">
            <mxPoint x="100" y="104.5" as="sourcePoint" />
            <mxPoint x="100" y="166.5" as="targetPoint" />
          </mxGeometry>
        </mxCell>
        <mxCell id="tbAudo4sEafu-b6Cth5T-17" value="" style="endArrow=classic;html=1;rounded=0;entryX=0.975;entryY=0.633;entryDx=0;entryDy=0;entryPerimeter=0;exitX=0.017;exitY=0.65;exitDx=0;exitDy=0;exitPerimeter=0;" edge="1" parent="tbAudo4sEafu-b6Cth5T-42" source="tbAudo4sEafu-b6Cth5T-14" target="tbAudo4sEafu-b6Cth5T-13">
          <mxGeometry width="50" height="50" relative="1" as="geometry">
            <mxPoint x="210" y="194.5" as="sourcePoint" />
            <mxPoint x="232" y="188.5" as="targetPoint" />
          </mxGeometry>
        </mxCell>
      </root>
    </mxGraphModel>
  </diagram>
</mxfile>
